<?xml version='1.0' encoding='UTF-8' standalone='no'?>
<!-- Created with Fritzing (http://www.fritzing.org/) -->
<svg xmlns:svg='http://www.w3.org/2000/svg' xmlns='http://www.w3.org/2000/svg' version='1.2' baseProfile='tiny' x='0in' y='0in' width='1.836in' height='1.171in' viewBox='0 0 132.192 84.312' >
<g partID='58250'><g transform='translate(88.992,0)' ><g id="breadboard" xmlns="http://www.w3.org/2000/svg">
<rect x="0" id="middle" height="19.44" fill="#303030" y="0" xmlns="http://www.w3.org/2000/svg" width="43.2"/>
<rect x="0" id="top" height="1.7712" fill="#3D3D3D" y="0" xmlns="http://www.w3.org/2000/svg" width="43.2"/>
<rect x="0" id="bottom" height="1.7712" fill="#000000" y="17.6688" xmlns="http://www.w3.org/2000/svg" width="43.2"/>
<polygon id="right" points="43.2,0,42.66,1.7712,42.66,17.6688,43.2,19.44" fill="#141414" xmlns="http://www.w3.org/2000/svg"/>
<polygon id="left" points="0,0,0.54,1.7712,0.54,17.6688,0,19.44" fill="#1F1F1F" xmlns="http://www.w3.org/2000/svg"/>
<polygon id="left-upper-rect" points="3.6,6.12,0.54,6.0912,0.4032,7.6176,0.4032,9.72,3.6,9.72" fill="#1C1C1C" xmlns="http://www.w3.org/2000/svg"/>
<polygon id="left-lower-rect" points="0.54,13.356,3.6,13.356,3.6,9.72,0.4032,9.72,0.4032,11.8224" fill="#383838" xmlns="http://www.w3.org/2000/svg"/>
<path d="M0.4032,7.6176l0,4.1976c1.0584,-0.1224,1.8864,-1.008,1.8864,-2.1024C2.2896,8.6184,1.4688,7.74,0.4032,7.6176z" id="slot" fill="#262626" xmlns="http://www.w3.org/2000/svg"/>
<path d="M0.54,1.7712L0.54,6.084c1.7136,0.324,3.0168,1.8216,3.0168,3.6288c0,1.8072,-1.296,3.312,-3.0168,3.636L0.54,13.356l3.6,0L4.14,1.7712L0.54,1.7712z" id="cover" fill="#303030" xmlns="http://www.w3.org/2000/svg"/>
<circle cx="4.68" cy="14.7384" fill="#212121" xmlns="http://www.w3.org/2000/svg" r="1.4832"/>
<text x="4.68" text-anchor="start" id="label" font-size="5.76" stroke="none" font-family="OCRA" fill="#e6e6e6" y="10.8" xmlns="http://www.w3.org/2000/svg">OPT101</text>
<rect x="2.52" id="connector0pin" height="3.1248" fill="#8C8C8C" y="18.4752" xmlns="http://www.w3.org/2000/svg" width="2.16"/>
<g x="2.52" id="connector0terminal" height="2.16" fill="#8C8C8C" y="19.44" xmlns="http://www.w3.org/2000/svg" width="2.16"/>
<polygon points="2.52,18.4752,2.52,19.9152,4.68,19.9152,6.12,19.2528,6.12,18.4752" fill="#8C8C8C" xmlns="http://www.w3.org/2000/svg"/>
<rect x="38.52" id="connector5pin" height="3.1248" fill="#8C8C8C" y="18.4752" xmlns="http://www.w3.org/2000/svg" width="2.16"/>
<g x="38.52" id="connector5terminal" height="2.16" fill="#8C8C8C" y="19.44" xmlns="http://www.w3.org/2000/svg" width="2.16"/>
<polygon points="37.08,18.4752,37.08,19.2528,38.52,19.9152,40.68,19.9152,40.68,18.4752" fill="#8C8C8C" xmlns="http://www.w3.org/2000/svg"/>
<rect x="9.72" id="connector1pin" height="3.1248" fill="#8C8C8C" y="18.4752" xmlns="http://www.w3.org/2000/svg" width="2.16"/>
<g x="9.72" id="connector1terminal" height="2.16" fill="#8C8C8C" y="19.44" xmlns="http://www.w3.org/2000/svg" width="2.16"/>
<polygon points="8.28,18.4752,8.28,19.2528,9.72,19.9152,11.88,19.9152,13.32,19.2528,13.32,18.4752" fill="#8C8C8C" xmlns="http://www.w3.org/2000/svg"/>
<rect x="16.92" id="connector2pin" height="3.1248" fill="#8C8C8C" y="18.4752" xmlns="http://www.w3.org/2000/svg" width="2.16"/>
<g x="16.92" id="connector2terminal" height="2.16" fill="#8C8C8C" y="19.44" xmlns="http://www.w3.org/2000/svg" width="2.16"/>
<polygon points="15.48,18.4752,15.48,19.2528,16.92,19.9152,19.08,19.9152,20.52,19.2528,20.52,18.4752" fill="#8C8C8C" xmlns="http://www.w3.org/2000/svg"/>
<rect x="24.12" id="connector3pin" height="3.1248" fill="#8C8C8C" y="18.4752" xmlns="http://www.w3.org/2000/svg" width="2.16"/>
<g x="24.12" id="connector3terminal" height="2.16" fill="#8C8C8C" y="19.44" xmlns="http://www.w3.org/2000/svg" width="2.16"/>
<polygon points="22.68,18.4752,22.68,19.2528,24.12,19.9152,26.28,19.9152,27.72,19.2528,27.72,18.4752" fill="#8C8C8C" xmlns="http://www.w3.org/2000/svg"/>
<rect x="31.32" id="connector4pin" height="3.1248" fill="#8C8C8C" y="18.4752" xmlns="http://www.w3.org/2000/svg" width="2.16"/>
<g x="31.32" id="connector4terminal" height="2.16" fill="#8C8C8C" y="19.44" xmlns="http://www.w3.org/2000/svg" width="2.16"/>
<polygon points="29.88,18.4752,29.88,19.2528,31.32,19.9152,33.48,19.9152,34.92,19.2528,34.92,18.4752" fill="#8C8C8C" xmlns="http://www.w3.org/2000/svg"/>
</g>
</g></g><g partID='58750'><line stroke-linecap='round' stroke='#8c0000' x1='95.184' y1='80.712' x2='92.592' y2='20.52' stroke-width='3.2' /><line stroke-linecap='round' stroke='#cc1414' x1='95.184' y1='80.712' x2='92.592' y2='20.52' stroke-width='1.6' /></g><g partID='58820'><line stroke-linecap='round' stroke='#000000' x1='109.584' y1='80.712' x2='128.592' y2='20.52' stroke-width='3.2' /><line stroke-linecap='round' stroke='#404040' x1='109.584' y1='80.712' x2='128.592' y2='20.52' stroke-width='1.6' /></g><g partID='58890'><line stroke-linecap='round' stroke='#000000' x1='109.584' y1='80.712' x2='121.392' y2='20.52' stroke-width='3.2' /><line stroke-linecap='round' stroke='#404040' x1='109.584' y1='80.712' x2='121.392' y2='20.52' stroke-width='1.6' /></g><g partID='59000'><line stroke-linecap='round' stroke='#00a527' x1='44.784' y1='80.712' x2='99.792' y2='20.52' stroke-width='3.2' /><line stroke-linecap='round' stroke='#25cc35' x1='44.784' y1='80.712' x2='99.792' y2='20.52' stroke-width='1.6' /></g><g partID='59070'><line stroke-linecap='round' stroke='#00a527' x1='44.784' y1='80.712' x2='106.992' y2='20.52' stroke-width='3.2' /><line stroke-linecap='round' stroke='#25cc35' x1='44.784' y1='80.712' x2='106.992' y2='20.52' stroke-width='1.6' /></g></svg>